<svg width="18" height="19" viewBox="0 0 18 19" fill="none" xmlns="http://www.w3.org/2000/svg">
<path fill-rule="evenodd" clip-rule="evenodd" d="M14.6222 7.02381C14.8896 10.556 12.243 13.6361 8.71081 13.9035C5.17865 14.1708 2.09852 11.5242 1.83115 7.99206C1.56377 4.4599 4.2104 1.37977 7.74256 1.1124C11.2747 0.845024 14.3548 3.49165 14.6222 7.02381ZM12.5741 13.5146C11.5008 14.293 10.2054 14.7932 8.78629 14.9006C4.70342 15.2097 1.14306 12.1504 0.834 8.06754C0.52494 3.98467 3.58421 0.424311 7.66708 0.11525C11.7499 -0.19381 15.3103 2.86546 15.6194 6.94833C15.795 9.26791 14.8834 11.4188 13.3145 12.9007C13.3343 12.9157 13.3532 12.9323 13.3711 12.9505L17.575 17.2541C17.7658 17.4494 17.7621 17.7623 17.5668 17.9531C17.3716 18.1438 17.0586 18.1401 16.8679 17.9449L12.664 13.6413C12.6266 13.603 12.5966 13.5601 12.5741 13.5146Z" fill="#1A1A1A"/>
</svg>
