<svg width="29" height="27" viewBox="0 0 29 27" fill="none" xmlns="http://www.w3.org/2000/svg">
<path fill-rule="evenodd" clip-rule="evenodd" d="M5.52524 11.2148C5.70126 9.96308 6.77662 9 8.07692 9C9.37723 9 10.4526 9.96308 10.6286 11.2148H5.52524ZM4.5 12.2148L4.5 15.2C4.5 15.4761 4.72386 15.7 5 15.7C5.27614 15.7 5.5 15.4761 5.5 15.2L5.5 12.2148H10.6538L10.6538 15.2C10.6538 15.4761 10.8777 15.7 11.1538 15.7C11.43 15.7 11.6538 15.4761 11.6538 15.2L11.6538 12.2148H15V25.0148H1V12.2148H4.5ZM4.5181 11.2148C4.69959 9.40941 6.22367 8 8.07692 8C9.93018 8 11.4543 9.40941 11.6357 11.2148H15H16V12.2148V25.0148V26.0148H15H1H0V25.0148V12.2148V11.2148H1H4.5181Z" fill="#1A1A1A"/>
<circle cx="19" cy="10" r="10" fill="#1A1A1A"/>
<path d="M19.4943 15.1392C18.8381 15.1392 18.2531 15.0265 17.7393 14.8011C17.2289 14.5758 16.8229 14.2625 16.5213 13.8615C16.223 13.4571 16.0606 12.9882 16.0341 12.4545H17.2869C17.3134 12.7827 17.4261 13.0661 17.625 13.3047C17.8239 13.54 18.084 13.7223 18.4055 13.8516C18.727 13.9808 19.0833 14.0455 19.4744 14.0455C19.9119 14.0455 20.2997 13.9692 20.6378 13.8168C20.9759 13.6643 21.241 13.4522 21.4332 13.1804C21.6255 12.9086 21.7216 12.5938 21.7216 12.2358C21.7216 11.8613 21.6288 11.5315 21.4432 11.2464C21.2576 10.9581 20.9858 10.7327 20.6278 10.5703C20.2699 10.4079 19.8324 10.3267 19.3153 10.3267H18.5V9.23295H19.3153C19.7197 9.23295 20.0743 9.16004 20.3793 9.0142C20.6875 8.86837 20.9278 8.66288 21.1001 8.39773C21.2758 8.13258 21.3636 7.82102 21.3636 7.46307C21.3636 7.11837 21.2874 6.81842 21.1349 6.56321C20.9825 6.308 20.767 6.10914 20.4886 5.96662C20.2135 5.8241 19.8887 5.75284 19.5142 5.75284C19.1629 5.75284 18.8314 5.81747 18.5199 5.94673C18.2116 6.07268 17.9598 6.25663 17.7642 6.49858C17.5687 6.73722 17.4626 7.02557 17.446 7.36364H16.2528C16.2727 6.83002 16.4335 6.36269 16.7351 5.96165C17.0367 5.55729 17.4311 5.24242 17.9183 5.01705C18.4089 4.79167 18.9474 4.67898 19.5341 4.67898C20.1638 4.67898 20.7041 4.80658 21.1548 5.06179C21.6056 5.31368 21.9519 5.64678 22.1939 6.06108C22.4358 6.47538 22.5568 6.92282 22.5568 7.40341C22.5568 7.9768 22.406 8.46567 22.1044 8.87003C21.8061 9.27438 21.4001 9.55445 20.8864 9.71023V9.78977C21.5294 9.89583 22.0315 10.1693 22.3928 10.6101C22.754 11.0476 22.9347 11.5895 22.9347 12.2358C22.9347 12.7893 22.7839 13.2865 22.4822 13.7273C22.1839 14.1648 21.7763 14.5095 21.2592 14.7614C20.7422 15.0133 20.1539 15.1392 19.4943 15.1392Z" fill="white"/>
</svg>
