<svg width="32" height="32" viewBox="0 0 32 32" fill="none" xmlns="http://www.w3.org/2000/svg">
<path d="M16 32C24.8366 32 32 24.8366 32 16C32 7.16344 24.8366 0 16 0C7.16344 0 0 7.16344 0 16C0 24.8366 7.16344 32 16 32Z" fill="#D6D6D6"/>
<path fill-rule="evenodd" clip-rule="evenodd" d="M7.24138 15.8329C11.9057 13.8007 15.016 12.461 16.5722 11.8137C21.0156 9.96555 21.9389 9.6445 22.5407 9.6339C22.673 9.63157 22.969 9.66437 23.1607 9.81992C23.3225 9.95127 23.3671 10.1287 23.3884 10.2532C23.4097 10.3778 23.4362 10.6614 23.4151 10.8831C23.1744 13.4131 22.1325 19.5526 21.6024 22.3863C21.3781 23.5853 20.9365 23.9873 20.509 24.0266C19.5798 24.1121 18.8743 23.4126 17.9743 22.8227C16.5661 21.8996 15.7706 21.3249 14.4037 20.4242C12.824 19.3832 13.848 18.811 14.7483 17.876C14.9839 17.6313 19.0778 13.9076 19.157 13.5698C19.1669 13.5275 19.1761 13.3701 19.0825 13.2869C18.989 13.2038 18.8509 13.2322 18.7513 13.2548C18.61 13.2869 16.3604 14.7738 12.0024 17.7156C11.3638 18.1541 10.7855 18.3677 10.2672 18.3565C9.69596 18.3442 8.59704 18.0335 7.78011 17.7679C6.77811 17.4422 5.98174 17.27 6.05108 16.7169C6.0872 16.4287 6.48397 16.1341 7.24138 15.8329Z" fill="#191919"/>
</svg>
