<svg width="29" height="50" viewBox="0 0 29 50" fill="none" xmlns="http://www.w3.org/2000/svg">
<path fill-rule="evenodd" clip-rule="evenodd" d="M1.72995 0.5H1.22995V1V20.314H2.22995V1.5H15.0951V20.0982V20.5982H15.5951H27.5035V48.1917H1.40625V49.1917H28.0035H28.5035V48.6917V20.0982V19.5982H28.0035H16.0951V1V0.5H15.5951H1.72995ZM1.80261 23.1738H1.50781V24.1738V31.3453V32.3453H1.80261H2.50781H2.80261H3.5579H4.15135C4.32506 32.3453 4.49659 32.3387 4.66505 32.3265C5.06958 32.2972 5.45644 32.2351 5.81345 32.1524C6.04655 32.0985 6.26693 32.0357 6.4712 31.9677C6.62995 31.9147 6.78546 31.8553 6.93613 31.7894C6.96995 31.7746 7.00353 31.7595 7.03685 31.7441C7.35284 31.5976 7.64531 31.4217 7.89888 31.2164C7.98517 31.1465 8.06696 31.0732 8.14364 30.9966C8.57524 30.565 8.95289 30.0794 9.16869 29.5399C9.38449 29.0004 9.49238 28.407 9.49238 27.7596C9.49238 27.1122 9.38449 26.5187 9.16869 25.9792C8.95289 25.4397 8.57524 24.9542 8.14364 24.5226C7.94723 24.3262 7.71731 24.1521 7.46404 24.0004C7.34717 23.9304 7.22532 23.8651 7.0995 23.8046C6.89882 23.7081 6.68804 23.6238 6.4712 23.5515C6.2698 23.474 6.06395 23.4099 5.85237 23.3579C5.48178 23.2667 5.09363 23.2126 4.68104 23.1886C4.5089 23.1786 4.3325 23.1738 4.15135 23.1738H3.5579H2.80261H2.50781H1.80261ZM2.80261 24.1738V24.8212V30.8058V31.3453V31.8058H3.5579C3.63918 31.8058 3.72047 31.8058 3.80261 31.805C3.91646 31.8038 4.03195 31.8009 4.15135 31.7942C4.28887 31.7864 4.43158 31.7735 4.58295 31.7519C4.9606 31.6979 5.2843 31.644 5.608 31.5361C5.82298 31.4644 6.03796 31.3689 6.23714 31.2655C6.33786 31.2132 6.43455 31.1588 6.52514 31.1045L6.52516 31.1044C6.76763 30.9105 7.0101 30.7165 7.21339 30.4833C7.23625 30.4571 7.25863 30.4304 7.28045 30.4031C7.49624 30.1334 7.65809 29.7557 7.81994 29.3241C7.98179 28.8386 8.03574 28.353 8.03574 27.8135C8.03574 27.274 7.98179 26.7885 7.81994 26.3569C7.71204 25.9253 7.49624 25.6016 7.28045 25.2779C7.1587 25.0952 7.01977 24.947 6.87337 24.8137C6.76028 24.7107 6.64273 24.6166 6.52517 24.5226L6.52516 24.5226L6.52514 24.5226C6.4274 24.4444 6.32258 24.3804 6.21324 24.3254C6.20216 24.3198 6.19104 24.3143 6.17987 24.3089C5.99705 24.2207 5.80253 24.1558 5.608 24.091C5.2843 23.9831 4.9606 23.9291 4.58295 23.8752C4.43158 23.8536 4.28887 23.8406 4.15135 23.8328C4.03195 23.8261 3.91646 23.8233 3.80261 23.8221C3.72047 23.8212 3.63918 23.8212 3.5579 23.8212H2.80261V24.1738ZM12.0032 32.3991H12.3519V31.3991V24.2276V23.2276H12.0032H11.3519H11.0032V24.2276V31.3991V32.3991H11.3519H12.0032ZM5.82659 36.1211V36.7145H4.82659H4.61464H3.61464V37.1211V37.7145V44.2926V45.2926H3.26589H2.61464H2.26589V44.2926V37.7145V37.1211V36.7145H1.26589H1H0V36.1211H1H2.26589H2.61464H3.26589H3.61464H4.82659H5.82659ZM12.0891 44.5662L12.4083 45.3466H12.726H13.811L13.39 44.3466L9.92665 36.1211H9.58079H9.55044H9.1935H8.47L8.82517 36.9893L8.87909 37.1211L8.95555 37.308L8.69593 37.9319L6.52064 43.1597L6.46697 43.2887L6.21319 43.8985L6.02676 44.3466L5.93536 44.5662L5.72052 45.0825L5.61066 45.3466H6.36596L6.68519 44.5662L6.85151 44.1597H7.12125H7.18765H11.653H11.9228L12.0891 44.5662ZM10.5668 43.5662H11.653L11.4806 43.1597L11.2288 42.5662L9.93028 39.5054L9.5234 38.5463L9.38715 38.2252L8.84401 39.5054L7.5455 42.5662L7.29373 43.1597L7.12125 43.5662H7.43459H8.20752H10.5668Z" fill="#1A1A1A"/>
</svg>
