<svg width="44" height="50" viewBox="0 0 44 50" fill="none" xmlns="http://www.w3.org/2000/svg">
<path d="M16.4346 47.9381H5.45331V45.5817H9.11375V29.3814H5.45331V27.025H16.4346V29.3814H12.7742V45.5817H16.4346V47.9381ZM21.1409 6.2592C20.618 5.00736 19.871 3.82916 18.8998 2.94551C17.9287 1.98822 16.7334 1.25184 15.4635 0.810015C12.6248 -0.220913 9.41256 -0.220913 6.57385 0.810015C5.2292 1.25184 4.03396 1.98822 3.06282 2.94551C2.09168 3.9028 1.34465 5.00736 0.821732 6.2592C0.224109 7.65832 0 9.13107 0 10.6038C0 12.0766 0.224109 13.5493 0.821732 14.9485C1.34465 16.2003 2.09168 17.3785 3.06282 18.2621C4.03396 19.2194 5.2292 19.9558 6.49915 20.3976C9.41256 21.4286 12.6248 21.4286 15.5382 20.3976C16.8081 19.9558 18.0034 19.2194 18.9745 18.2621C19.9457 17.3049 20.6927 16.2003 21.2156 14.9485C21.7385 13.5493 22.0373 12.0766 21.9626 10.6038C21.9626 9.13107 21.6638 7.65832 21.1409 6.2592ZM17.4805 13.7703C17.1817 14.6539 16.7334 15.4639 16.0611 16.2003C15.4635 16.863 14.6418 17.3785 13.82 17.7467C12.9236 18.1149 11.8778 18.3358 10.9066 18.2621C9.93548 18.2621 8.96435 18.1149 8.06791 17.7467C7.24618 17.3785 6.42445 16.863 5.82683 16.2003C5.1545 15.4639 4.70628 14.6539 4.40747 13.7703C4.03396 12.7393 3.88455 11.7084 3.88455 10.6038C3.88455 9.49926 4.03396 8.46834 4.40747 7.43741C4.70628 6.55376 5.2292 5.74374 5.82683 5.00736C6.42445 4.34462 7.24618 3.82916 8.06791 3.46097C8.96435 3.09278 10.0102 2.87187 10.9813 2.87187C11.9525 2.87187 12.9983 3.01915 13.8947 3.46097C14.7165 3.82916 15.4635 4.34462 16.1358 5.00736C16.7334 5.74374 17.2564 6.55376 17.5552 7.43741C18.2275 9.49926 18.1528 11.7084 17.4805 13.7703ZM43.9253 21.2077H40.489L30.5535 5.30191C30.5535 6.84831 30.5535 8.3947 30.6282 9.94109V21.2077H27.416V0H30.927L40.7878 15.9057V0H44L43.9253 21.2077ZM32.7199 26.1414C34.2139 26.1414 35.708 26.3623 37.1273 26.9514C38.3973 27.4669 39.5925 28.2032 40.5637 29.1605C41.5348 30.1915 42.2818 31.3697 42.8048 32.6215C43.3277 34.0943 43.6265 35.567 43.6265 37.1134C43.6265 38.6598 43.4024 40.1325 42.8795 41.6053C42.4312 42.9308 41.6842 44.109 40.7131 45.1399L44 47.57L41.8336 50L37.8744 46.9809C37.1273 47.4227 36.3056 47.7172 35.4839 47.8645C34.5874 48.0854 33.691 48.1591 32.7946 48.1591C31.2258 48.1591 29.7317 47.9381 28.3124 47.349C27.0424 46.8336 25.8472 46.0972 24.8761 45.0663C23.9049 44.0353 23.1579 42.8571 22.7097 41.6053C22.1868 40.1325 21.9626 38.6598 21.9626 37.1134C21.9626 35.567 22.1868 34.0206 22.7844 32.6215C23.3073 31.296 24.0543 30.1178 25.0255 29.1605C25.9966 28.2032 27.1918 27.3932 28.4618 26.9514C29.7317 26.4359 31.2258 26.1414 32.7199 26.1414ZM33.2428 43.299L35.2598 41.0898L37.7997 43.0781C38.3973 42.3417 38.9202 41.458 39.219 40.5007C39.8166 38.3652 39.8166 36.0825 39.219 33.947C38.9202 32.9897 38.472 32.1797 37.8744 31.4433C37.2767 30.7069 36.5297 30.1915 35.708 29.8233C34.7905 29.4227 33.7981 29.2157 32.7946 29.2157C31.7911 29.2157 30.7987 29.4227 29.8812 29.8233C29.0594 30.1915 28.2377 30.7806 27.6401 31.4433C27.0424 32.1797 26.5195 33.0633 26.2207 33.947C25.8472 34.9779 25.6978 36.0825 25.6978 37.187C25.6978 38.2916 25.8472 39.4698 26.2207 40.5007C26.5195 41.458 26.9677 42.268 27.6401 43.0044C28.2377 43.6672 28.9847 44.2563 29.8812 44.6244C30.7776 44.9926 31.7487 45.2136 32.7946 45.2136C33.2428 45.2136 33.691 45.2135 34.1392 45.0663C34.5127 44.9926 34.8862 44.919 35.2598 44.7717L33.2428 43.299Z" fill="#1A1A1A"/>
</svg>
