<svg width="21" height="18" viewBox="0 0 21 18" fill="none" xmlns="http://www.w3.org/2000/svg">
<path fill-rule="evenodd" clip-rule="evenodd" d="M9.49119 1.68921L9.41782 1.61584C7.26337 -0.538615 3.7703 -0.538614 1.61584 1.61584C-0.538613 3.7703 -0.538615 7.26336 1.61584 9.41782L9.49091 17.2929L10.198 18L10.1983 17.9997L10.1986 18L10.9057 17.2929L18.7808 9.41782C20.9352 7.26336 20.9352 3.7703 18.7808 1.61584C16.6263 -0.538614 13.1332 -0.538615 10.9788 1.61584L10.9054 1.68921L10.1983 2.39632L9.49119 1.68921ZM10.1986 16.5858L18.0737 8.71071C19.8376 6.94678 19.8376 4.08688 18.0737 2.32295C16.3097 0.559017 13.4498 0.559017 11.6859 2.32295L10.9054 3.10343L10.1983 3.81053L9.49119 3.10343L8.71072 2.32295C6.94678 0.559017 4.08688 0.559017 2.32295 2.32295C0.559017 4.08688 0.559016 6.94678 2.32295 8.71071L10.198 16.5858L10.1983 16.5855L10.1986 16.5858Z" fill="#1A1A1A"/>
</svg>
