<svg width="18" height="19" viewBox="0 0 18 19" fill="none" xmlns="http://www.w3.org/2000/svg">
<path fill-rule="evenodd" clip-rule="evenodd" d="M13.5387 5.26152C13.5387 7.61509 11.6307 9.52304 9.27715 9.52304C6.92357 9.52304 5.01562 7.61509 5.01562 5.26152C5.01562 2.90795 6.92357 1 9.27715 1C11.6307 1 13.5387 2.90795 13.5387 5.26152ZM14.5387 5.26152C14.5387 8.16738 12.183 10.523 9.27715 10.523C6.37129 10.523 4.01562 8.16738 4.01562 5.26152C4.01562 2.35566 6.37129 0 9.27715 0C12.183 0 14.5387 2.35566 14.5387 5.26152ZM4.39915 14.5496C3.15012 15.613 2.31724 16.8897 1.93968 17.7203C1.82541 17.9717 1.52899 18.0829 1.2776 17.9686C1.02621 17.8543 0.915046 17.5579 1.02931 17.3065C1.46256 16.3534 2.38102 14.9544 3.75089 13.7881C5.12607 12.6173 6.98006 11.6621 9.26823 11.6621C11.5564 11.6621 13.4104 12.6173 14.7856 13.7881C16.1554 14.9544 17.0739 16.3534 17.5071 17.3065C17.6214 17.5579 17.5103 17.8543 17.2589 17.9686C17.0075 18.0829 16.711 17.9717 16.5968 17.7203C16.2192 16.8897 15.3863 15.613 14.1373 14.5496C12.8936 13.4907 11.2611 12.6621 9.26823 12.6621C7.27535 12.6621 5.64288 13.4907 4.39915 14.5496Z" fill="#1A1A1A"/>
</svg>
